<?xml version="1.0" encoding="utf-8"?>
<!-- Generator: Adobe Illustrator 16.0.0, SVG Export Plug-In . SVG Version: 6.00 Build 0)  -->
<!DOCTYPE svg PUBLIC "-//W3C//DTD SVG 1.1//EN" "http://www.w3.org/Graphics/SVG/1.1/DTD/svg11.dtd">
<svg version="1.1" id="圖層_1" xmlns="http://www.w3.org/2000/svg" xmlns:xlink="http://www.w3.org/1999/xlink" x="0px" y="0px"
	 width="841.89px" height="595.28px" viewBox="0 0 841.89 595.28" enable-background="new 0 0 841.89 595.28" xml:space="preserve">
<g>
	<g>
		<polygon fill="#FFFFFF" points="129.505,18.673 128.461,386.538 449.623,203.496 		"/>
		<polygon fill="#F0A571" points="128.461,386.538 448.582,571.359 449.623,203.496 		"/>
	</g>
	<path fill="#231815" d="M774.547,14.673c-2.211-3.801-7.078-5.091-10.881-2.883L449.61,194.299L133.484,11.783
		c-2.459-1.419-5.488-1.423-7.95-0.007c-2.461,1.417-3.981,4.039-3.989,6.877l-1.043,367.868c-0.008,2.851,1.509,5.489,3.98,6.914
		l320.121,184.822c0.09,0.052,0.193,0.066,0.284,0.118c0.427,0.227,0.876,0.407,1.345,0.555c0.16,0.051,0.313,0.108,0.475,0.146
		c0.598,0.146,1.211,0.242,1.854,0.245c0.01,0,0.016,0,0.023,0c0.645,0,1.266-0.099,1.861-0.242
		c0.168-0.041,0.324-0.099,0.482-0.149c0.463-0.144,0.908-0.321,1.334-0.546c0.094-0.051,0.199-0.07,0.293-0.121
		c0.063-0.038,0.107-0.095,0.167-0.13c0.539-0.329,1.046-0.698,1.487-1.138c0.012-0.014,0.021-0.029,0.037-0.045
		c0.418-0.428,0.777-0.912,1.094-1.426c0.094-0.152,0.168-0.305,0.256-0.465c0.213-0.411,0.391-0.835,0.533-1.287
		c0.057-0.17,0.115-0.329,0.16-0.501c0.15-0.606,0.252-1.234,0.255-1.888l1.028-363.298L771.662,25.556
		C775.465,23.346,776.756,18.474,774.547,14.673z M440.801,508.173l-0.141,49.426L136.433,381.953l0.992-349.512l304.228,175.646
		L440.801,508.173z"/>
</g>
</svg>
