<?xml version="1.0" encoding="utf-8"?>
<!-- Generator: Adobe Illustrator 16.0.0, SVG Export Plug-In . SVG Version: 6.00 Build 0)  -->
<!DOCTYPE svg PUBLIC "-//W3C//DTD SVG 1.1//EN" "http://www.w3.org/Graphics/SVG/1.1/DTD/svg11.dtd">
<svg version="1.1" id="圖層_1" xmlns="http://www.w3.org/2000/svg" xmlns:xlink="http://www.w3.org/1999/xlink" x="0px" y="0px"
	 width="841.89px" height="595.28px" viewBox="0 0 841.89 595.28" enable-background="new 0 0 841.89 595.28" xml:space="preserve">
<rect x="125.416" y="43.833" fill="#38786F" width="472.5" height="357"/>
<g>
	<polygon fill="#FFFFFF" points="219.445,141.061 219.117,256.603 319.99,199.111 	"/>
	<polygon fill="#F0A571" points="219.117,256.603 319.663,314.653 319.99,199.111 	"/>
</g>
<path fill="#231815" d="M422.044,139.805c-0.693-1.194-2.223-1.599-3.417-0.905l-98.64,57.324l-99.292-57.326
	c-0.772-0.446-1.724-0.447-2.497-0.002c-0.773,0.445-1.25,1.268-1.253,2.16l-0.328,115.542c-0.002,0.896,0.474,1.724,1.25,2.172
	l100.546,58.05c0.028,0.017,0.061,0.021,0.089,0.037c0.134,0.071,0.275,0.129,0.422,0.175c0.05,0.016,0.098,0.034,0.149,0.046
	c0.188,0.046,0.38,0.076,0.582,0.077c0.003,0,0.005,0,0.007,0c0.203,0,0.397-0.031,0.585-0.076c0.052-0.013,0.101-0.031,0.151-0.047
	c0.146-0.045,0.285-0.102,0.418-0.172c0.03-0.016,0.063-0.021,0.092-0.038c0.02-0.012,0.034-0.029,0.053-0.041
	c0.168-0.103,0.328-0.219,0.466-0.357c0.004-0.004,0.007-0.009,0.011-0.014c0.132-0.134,0.244-0.286,0.344-0.447
	c0.029-0.048,0.054-0.097,0.08-0.146c0.068-0.129,0.124-0.263,0.169-0.404c0.017-0.053,0.036-0.104,0.049-0.157
	c0.047-0.19,0.08-0.388,0.08-0.593l0.324-114.108l98.652-57.331C422.333,142.529,422.738,140.999,422.044,139.805z M317.219,294.807
	l-0.044,15.524l-95.554-55.168l0.312-109.778l95.554,55.168L317.219,294.807z"/>
<g>
	<g>
		<path fill="#FFFFFF" d="M340.409,221.733c-1.719,2.593-4,5.359-6.845,8.297l-1.241-1.33c2.537-2.532,4.661-5.042,6.371-7.53
			L340.409,221.733z M353.459,211.853l-9.433,5.481v6.918l-2.164,1.257v-6.918l-9.409,5.468v-2.064l9.409-5.468v-1.49l-7.116,4.135
			v-9.146l6.537-3.798v-4.73l2.199-1.278v1.285l8.428-4.897v1.9l-8.428,4.897v1.518l7.612-4.424v9.174l-7.068,4.108v1.49
			l9.433-5.481V211.853z M348.955,205.433v-1.736l-12.033,6.993v1.736L348.955,205.433z M348.955,208.96v-1.709l-12.033,6.993v1.709
			L348.955,208.96z M353.637,216.398l-1.123,2.676c-2.325-0.28-4.713-0.192-7.164,0.266l1.359-2.663
			C349.681,216.181,351.989,216.088,353.637,216.398z"/>
		<path fill="#FFFFFF" d="M379.947,182.159l-10.509,6.106v4.512c3.822,0.085,6.733,0.512,8.735,1.281l-1.348,2.93
			c-1.852-0.774-4.314-1.248-7.388-1.422v13.918l-2.199,1.278v-21.219l-8.333,4.843v-2.461l21.041-12.227V182.159z"/>
		<path fill="#FFFFFF" d="M392.553,192.922l-2.033,1.182v-1.49l-2.293,1.305v2.188l-2.068,1.202l-0.048-19.906l6.442-3.744V192.922z
			 M390.52,190.152v-12.879l-2.293,1.333v12.879L390.52,190.152z M406.667,182.177c-0.078,2.069-0.343,3.617-0.792,4.644
			c-0.449,1.026-1.079,1.808-1.891,2.343c-0.813,0.536-2.108,1.321-3.89,2.356c-1.813,1.053-3.006,1.704-3.581,1.951
			c-0.576,0.248-1.029,0.217-1.359-0.092c-0.331-0.309-0.497-0.833-0.497-1.571v-20.604l11.088-6.443v12.4l-8.983,5.221v7.875
			c0,0.501,0.229,0.619,0.686,0.354l5.804-3.4c0.449-0.261,0.759-0.771,0.928-1.531c0.17-0.759,0.29-1.852,0.361-3.279
			L406.667,182.177z M399.138,178.623v-7.615l-2.376,1.381v7.615L399.138,178.623z M403.594,176.034v-7.615l-2.305,1.339v7.615
			L403.594,176.034z"/>
	</g>
	<g>
		<path fill="#FFFFFF" d="M353.099,250.035l-2.838,1.648v-9.297l-8.807,5.118v9.297l-2.837,1.648v-21.178l2.837-1.648v8.996
			l8.807-5.118v-8.996l2.838-1.648V250.035z"/>
		<path fill="#FFFFFF" d="M374.967,237.327l-3.121,1.813l-1.714-4.514l-7.329,4.259l-1.631,6.458l-3.121,1.813l6.903-25.189
			l3.156-1.834L374.967,237.327z M369.34,232.367l-2.554-6.87c-0.095-0.246-0.188-0.724-0.283-1.435l-0.083,0.048
			c-0.071,0.67-0.17,1.251-0.296,1.744l-2.541,9.858L369.34,232.367z"/>
		<path fill="#FFFFFF" d="M392.636,205.882l-6.608,25.018l-3.168,1.841l-6.501-17.4l3.108-1.807l4.634,13.372
			c0.174,0.492,0.296,1.077,0.366,1.756l0.06-0.034c0.055-0.634,0.193-1.379,0.414-2.236l4.692-18.764L392.636,205.882z"/>
		<path fill="#FFFFFF" d="M407.673,218.322l-10.143,5.894v-21.178l9.729-5.653v2.816l-6.892,4.005v6.234l6.396-3.716v2.803
			l-6.396,3.716v6.508l7.306-4.245V218.322z"/>
	</g>
	<g>
		<path fill="#FFFFFF" d="M353.47,282.214l-3.121,1.813l-1.714-4.514l-7.329,4.259l-1.631,6.458l-3.121,1.813l6.903-25.189
			l3.156-1.834L353.47,282.214z M347.843,277.254l-2.554-6.87c-0.095-0.246-0.188-0.724-0.283-1.435l-0.083,0.048
			c-0.071,0.67-0.17,1.251-0.296,1.744l-2.541,9.858L347.843,277.254z"/>
		<path fill="#FFFFFF" d="M358.791,274.734c1.402,0.506,3.054,0.208,4.953-0.896c2.427-1.41,3.641-3.077,3.641-5
			c0-0.556-0.134-0.979-0.402-1.271c-0.268-0.291-0.628-0.471-1.081-0.54s-1.35-0.084-2.689-0.044
			c-1.647,0.046-2.798-0.21-3.452-0.77c-0.654-0.559-0.98-1.471-0.98-2.738c0-1.823,0.622-3.62,1.867-5.392
			c1.245-1.771,2.837-3.221,4.775-4.348c1.837-1.067,3.224-1.613,4.161-1.639v3.363c-1.127-0.247-2.533,0.119-4.22,1.099
			c-1.08,0.627-1.95,1.384-2.612,2.27s-0.993,1.767-0.993,2.642c0,0.793,0.242,1.304,0.727,1.532
			c0.485,0.229,1.508,0.318,3.068,0.269c1.82-0.074,3.077,0.183,3.771,0.769s1.04,1.521,1.04,2.807c0,1.914-0.599,3.725-1.797,5.433
			c-1.197,1.708-2.856,3.178-4.977,4.41c-0.78,0.454-1.646,0.848-2.601,1.183c-0.953,0.335-1.687,0.47-2.198,0.403V274.734z"/>
		<path fill="#FFFFFF" d="M382.737,265.207l-10.143,5.894v-21.178l9.729-5.653v2.816l-6.892,4.004v6.234l6.396-3.716v2.803
			l-6.396,3.716v6.508l7.306-4.245V265.207z"/>
		<path fill="#FFFFFF" d="M399.852,255.263l-3.121,1.813l-1.714-4.514l-7.329,4.259l-1.631,6.458l-3.121,1.813l6.903-25.189
			l3.156-1.834L399.852,255.263z M394.225,250.302l-2.554-6.87c-0.094-0.246-0.188-0.724-0.283-1.435l-0.083,0.048
			c-0.071,0.67-0.17,1.251-0.296,1.744l-2.541,9.858L394.225,250.302z"/>
		<path fill="#FFFFFF" d="M410.838,230.517l-5.26,3.057v18.361l-2.849,1.655v-18.361l-5.249,3.05v-2.816l13.357-7.762V230.517z"/>
	</g>
</g>
</svg>
