<?xml version="1.0" encoding="utf-8"?>
<!-- Generator: Adobe Illustrator 16.0.0, SVG Export Plug-In . SVG Version: 6.00 Build 0)  -->
<!DOCTYPE svg PUBLIC "-//W3C//DTD SVG 1.1//EN" "http://www.w3.org/Graphics/SVG/1.1/DTD/svg11.dtd">
<svg version="1.1" id="圖層_1" xmlns="http://www.w3.org/2000/svg" xmlns:xlink="http://www.w3.org/1999/xlink" x="0px" y="0px"
	 width="841.89px" height="595.28px" viewBox="0 0 841.89 595.28" enable-background="new 0 0 841.89 595.28" xml:space="preserve">
<g>
	<polygon fill="#FFFFFF" points="320.445,211.061 320.117,326.603 420.99,269.111 	"/>
	<polygon fill="#F0A571" points="320.117,326.603 420.663,384.653 420.99,269.111 	"/>
</g>
<path fill="#231815" d="M523.044,209.805c-0.693-1.194-2.223-1.599-3.417-0.905l-98.641,57.324l-99.292-57.326
	c-0.772-0.446-1.724-0.447-2.497-0.002c-0.773,0.445-1.25,1.268-1.253,2.16l-0.328,115.543c-0.002,0.895,0.474,1.724,1.25,2.172
	l100.546,58.05c0.028,0.017,0.061,0.021,0.089,0.037c0.134,0.071,0.275,0.129,0.422,0.175c0.05,0.016,0.098,0.034,0.149,0.046
	c0.188,0.046,0.38,0.076,0.582,0.077c0.003,0,0.005,0,0.007,0c0.203,0,0.397-0.031,0.585-0.076c0.052-0.013,0.101-0.031,0.151-0.047
	c0.146-0.045,0.285-0.102,0.418-0.172c0.03-0.016,0.063-0.021,0.092-0.038c0.02-0.012,0.034-0.029,0.053-0.041
	c0.168-0.103,0.328-0.219,0.466-0.357c0.004-0.004,0.007-0.009,0.012-0.014c0.132-0.134,0.244-0.286,0.344-0.447
	c0.029-0.048,0.053-0.097,0.08-0.146c0.067-0.129,0.123-0.263,0.168-0.404c0.018-0.053,0.036-0.104,0.05-0.157
	c0.048-0.19,0.079-0.388,0.08-0.593l0.323-114.108l98.652-57.331C523.333,212.529,523.738,210.999,523.044,209.805z
	 M418.219,364.807l-0.044,15.524l-95.554-55.168l0.312-109.778l95.554,55.168L418.219,364.807z"/>
</svg>
